<?xml version="1.0" encoding="utf-8" ?>
<svg xmlns="http://www.w3.org/2000/svg" xmlns:xlink="http://www.w3.org/1999/xlink" width="22" height="22" viewBox="0 0 22 22">
	<rect width="4.9867835" height="1.4865016" transform="matrix(1 0 0 1 2.93407 0)" fill="rgb(215, 215, 215)"/>
	<rect width="4.9867835" height="1.4865016" transform="matrix(1 0 0 1 14.0806 0)" fill="rgb(215, 215, 215)"/>
	<rect width="1.4667011" height="1.4865016" transform="matrix(1 0 0 1 1.46806 1.48633)" fill="rgb(215, 215, 215)"/>
	<rect width="2.0533817" height="1.4865016" transform="matrix(1 0 0 1 12.027 1.48633)" fill="rgb(215, 215, 215)"/>
	<rect width="1.4667011" height="2.6757028" transform="matrix(1 0 0 1 1.46806 10.4058)" fill="rgb(215, 215, 215)"/>
	<rect width="1.4667011" height="2.6757028" transform="matrix(1 0 0 1 19.0663 10.4058)" fill="rgb(215, 215, 215)"/>
	<rect width="1.4667011" height="1.4865016" transform="matrix(1 0 0 -1 2.93407 14.5679)" fill="rgb(215, 215, 215)"/>
	<rect width="1.4667011" height="1.4865016" transform="matrix(1 0 0 -1 17.6003 14.5679)" fill="rgb(215, 215, 215)"/>
	<rect width="1.4667011" height="1.4865016" transform="matrix(1 0 0 -1 16.1322 16.0542)" fill="rgb(215, 215, 215)"/>
	<rect width="1.4667011" height="1.4865016" transform="matrix(1 0 0 -1 14.6662 17.5405)" fill="rgb(215, 215, 215)"/>
	<rect width="1.4667011" height="1.4865016" transform="matrix(1 0 0 -1 13.2002 19.0273)" fill="rgb(215, 215, 215)"/>
	<rect width="1.4667011" height="1.4865016" transform="matrix(1 0 0 -1 11.7342 20.5137)" fill="rgb(215, 215, 215)"/>
	<rect width="1.4667011" height="1.4865016" transform="matrix(1 0 0 -1 4.40007 16.0542)" fill="rgb(215, 215, 215)"/>
	<rect width="1.4667011" height="1.4865016" transform="matrix(1 0 0 -1 5.86607 17.5405)" fill="rgb(215, 215, 215)"/>
	<rect width="1.4667011" height="1.4865016" transform="matrix(1 0 0 -1 7.33414 19.0273)" fill="rgb(215, 215, 215)"/>
	<rect width="1.4667011" height="1.4865016" transform="matrix(1 0 0 -1 8.80014 20.5137)" fill="rgb(215, 215, 215)"/>
	<rect width="1.4667011" height="1.4865016" transform="matrix(1 0 0 -1 10.2661 22)" fill="rgb(215, 215, 215)"/>
	<rect width="1.4667011" height="7.432508" transform="matrix(1 0 0 -1 0 10.4058)" fill="rgb(215, 215, 215)"/>
	<rect width="1.4667011" height="7.432508" transform="matrix(1 0 0 -1 20.5323 10.4058)" fill="rgb(215, 215, 215)"/>
	<rect width="2.0533817" height="1.4865016" transform="matrix(1 0 0 1 7.92178 1.48633)" fill="rgb(215, 215, 215)"/>
	<rect width="1.4667011" height="1.4865016" transform="matrix(1 0 0 1 19.0663 1.48633)" fill="rgb(215, 215, 215)"/>
	<rect width="2.0533817" height="1.4865016" transform="matrix(1 0 0 1 9.97336 2.97314)" fill="rgb(215, 215, 215)"/>
</svg>
