<?xml version="1.0" encoding="utf-8" ?>
<svg xmlns="http://www.w3.org/2000/svg" xmlns:xlink="http://www.w3.org/1999/xlink" width="54" height="21" viewBox="0 0 54 21">
	<rect width="48" height="6" transform="matrix(1 0 0 1 3 5)" fill="rgb(30, 27, 38)"/>
	<rect width="54" height="3" transform="matrix(1 0 0 1 0 2)" fill="rgb(41, 35, 38)"/>
	<rect width="54" height="2" transform="matrix(1 0 0 1 0 0)" fill="rgb(91, 78, 72)"/>
	<rect width="6" height="3" transform="matrix(1 0 0 1 6 2)" fill="rgb(60, 44, 36)"/>
	<rect width="3" height="2" transform="matrix(1 0 0 1 6 0)" fill="rgb(62, 64, 70)"/>
	<rect width="6" height="3" transform="matrix(1 0 0 1 8 13)" fill="rgb(54, 41, 34)"/>
	<rect width="10" height="3" transform="matrix(1 0 0 1 23 13)" fill="rgb(54, 41, 34)"/>
	<rect width="12" height="3" transform="matrix(1 0 0 1 33 13)" fill="rgb(41, 35, 38)"/>
	<rect width="9" height="3" transform="matrix(1 0 0 1 8 16)" fill="rgb(41, 35, 38)"/>
	<rect width="6" height="3" transform="matrix(1 0 0 1 14 13)" fill="rgb(35, 32, 39)"/>
	<rect width="22" height="3" transform="matrix(1 0 0 1 23 16)" fill="rgb(35, 32, 39)"/>
	<rect width="3" height="3" transform="matrix(1 0 0 1 17 16)" fill="rgb(31, 29, 33)"/>
	<rect width="3" height="3" transform="matrix(1 0 0 1 0 5)" fill="rgb(30, 27, 38)"/>
	<rect width="3" height="3" transform="matrix(1 0 0 1 0 8)" fill="rgb(19, 23, 32)"/>
	<rect width="3" height="6" transform="matrix(1 0 0 1 5 13)" fill="rgb(19, 23, 32)"/>
	<rect width="3" height="6" transform="matrix(1 0 0 1 20 13)" fill="rgb(19, 23, 32)"/>
	<rect width="3" height="6" transform="matrix(1 0 0 1 45 13)" fill="rgb(19, 23, 32)"/>
	<rect width="3" height="3" transform="matrix(1 0 0 1 51 8)" fill="rgb(19, 23, 32)"/>
	<rect width="48" height="2" transform="matrix(1 0 0 1 3 11)" fill="rgb(19, 23, 32)"/>
	<rect width="37" height="2" transform="matrix(1 0 0 1 8 19)" fill="rgb(19, 23, 32)"/>
	<rect width="3" height="3" transform="matrix(1 0 0 1 51 5)" fill="rgb(30, 27, 38)"/>
	<rect width="5" height="3" transform="matrix(1 0 0 1 22 2)" fill="rgb(60, 44, 36)"/>
	<rect width="5" height="2" transform="matrix(1 0 0 1 16 0)" fill="rgb(62, 64, 70)"/>
	<rect width="3" height="3" transform="matrix(1 0 0 1 39 2)" fill="rgb(60, 44, 36)"/>
	<rect width="3" height="2" transform="matrix(1 0 0 1 33 0)" fill="rgb(62, 64, 70)"/>
	<rect width="3" height="3" transform="matrix(1 0 0 1 51 2)" fill="rgb(60, 44, 36)"/>
	<rect width="3" height="2" transform="matrix(1 0 0 1 47 0)" fill="rgb(62, 64, 70)"/>
</svg>
