<?xml version="1.0" encoding="utf-8" ?>
<svg xmlns="http://www.w3.org/2000/svg" xmlns:xlink="http://www.w3.org/1999/xlink" width="183" height="70" viewBox="0 0 183 70">
	<rect width="159" height="46" transform="matrix(1 0 0 1 12 12)" fill="rgb(101, 180, 183)"/>
	<rect width="12" height="12" transform="matrix(1 0 0 1 159 12)" fill="rgb(26, 23, 53)"/>
	<rect width="12" height="12" transform="matrix(1 0 0 1 159 46)" fill="rgb(26, 23, 53)"/>
	<rect width="12" height="12" transform="matrix(1 0 0 1 12 12)" fill="rgb(26, 23, 53)"/>
	<rect width="12" height="12" transform="matrix(1 0 0 1 12 46)" fill="rgb(26, 23, 53)"/>
	<rect width="12" height="22" transform="matrix(1 0 0 1 171 24)" fill="rgb(26, 23, 53)"/>
	<rect width="12" height="22" transform="matrix(1 0 0 1 0 24)" fill="rgb(26, 23, 53)"/>
	<rect width="10" height="135" transform="matrix(0 1 -1 0 159 2)" fill="rgb(26, 23, 53)"/>
	<rect width="10" height="135" transform="matrix(0 1 -1 0 159 58)" fill="rgb(26, 23, 53)"/>
	<path d="M0 0L5 0L5 3L10 3L10 6L15 6L15 9L18 9L18 13L15 13L15 16L10 16L10 19L5 19L5 22L0 22L0 0Z" fill-rule="evenodd" transform="matrix(1 0 0 1 139 26)" fill="rgb(26, 23, 53)"/>
	<path d="M5 0L0 0L0 29L5 29L5 13L9 13L9 17L12 17L12 22L15 22L15 27L18 27L18 29L23 29L23 0L18 0L18 17L15 17L15 13L12 13L12 8L9 8L9 4L5 4L5 0Z" fill-rule="evenodd" transform="matrix(1 0 0 1 29 22)" fill="rgb(26, 23, 53)"/>
	<path d="M5.78947 0L0 0L0 29L22 29L22 25L5.78947 25L5.78947 17L20.8418 17L20.8418 13L5.78947 13L5.78947 4L22 4L22 0L5.78947 0Z" fill-rule="evenodd" transform="matrix(1 0 0 1 55 22)" fill="rgb(26, 23, 53)"/>
	<path d="M0 0L6.57143 0L6.57143 8L8.76181 8L8.76181 12L14.2383 12L14.2383 8L16.4277 8L16.4277 0L22.9992 0L22.9992 8L18.6192 8L18.6192 13L15.3327 13L15.3327 17L18.6192 17L18.6192 21L22.9992 21L22.9992 29L16.4277 29L16.4277 22L14.2383 22L14.2383 18L8.76181 18L8.76181 22L6.57143 22L6.57143 29L0 29L0 21L4.38086 21L4.38086 17L7.66602 17L7.66602 13L4.38086 13L4.38086 8L0 8L0 0Z" fill-rule="evenodd" transform="matrix(1 0 0 1 80 22)" fill="rgb(26, 23, 53)"/>
	<path d="M23 5L23 0L0 0L0 5L8.76172 5L8.76172 29L14.2379 29L14.2379 5L23 5Z" fill-rule="evenodd" transform="matrix(1 0 0 1 106 22)" fill="rgb(26, 23, 53)"/>
	<path d="M0 0L5 0L5 3L10 3L10 6L15 6L15 9L18 9L18 13L15 13L15 16L10 16L10 19L5 19L5 22L0 22L0 0Z" fill-rule="evenodd" transform="matrix(1 0 0 1 141 23)" fill="rgb(255, 240, 123)"/>
	<path d="M5 0L0 0L0 29L5 29L5 13L9 13L9 17L12 17L12 22L15 22L15 27L18 27L18 29L23 29L23 0L18 0L18 17L15 17L15 13L12 13L12 8L9 8L9 4L5 4L5 0Z" fill-rule="evenodd" transform="matrix(1 0 0 1 31 19)" fill="rgb(255, 240, 123)"/>
	<path d="M5.78947 0L0 0L0 29L22 29L22 25L5.78947 25L5.78947 17L20.8418 17L20.8418 13L5.78947 13L5.78947 4L22 4L22 0L5.78947 0Z" fill-rule="evenodd" transform="matrix(1 0 0 1 57 19)" fill="rgb(255, 240, 123)"/>
	<path d="M0 0L6.57143 0L6.57143 8L8.76181 8L8.76181 12L14.2383 12L14.2383 8L16.4277 8L16.4277 0L22.9992 0L22.9992 8L18.6192 8L18.6192 13L15.3327 13L15.3327 17L18.6192 17L18.6192 21L22.9992 21L22.9992 29L16.4277 29L16.4277 22L14.2383 22L14.2383 18L8.76181 18L8.76181 22L6.57143 22L6.57143 29L0 29L0 21L4.38086 21L4.38086 17L7.66602 17L7.66602 13L4.38086 13L4.38086 8L0 8L0 0Z" fill-rule="evenodd" transform="matrix(1 0 0 1 82 19)" fill="rgb(255, 240, 123)"/>
	<path d="M23 5L23 0L0 0L0 5L8.76172 5L8.76172 29L14.2379 29L14.2379 5L23 5Z" fill-rule="evenodd" transform="matrix(1 0 0 1 108 19)" fill="rgb(255, 240, 123)"/>
</svg>
