<?xml version="1.0" encoding="utf-8" ?>
<svg xmlns="http://www.w3.org/2000/svg" xmlns:xlink="http://www.w3.org/1999/xlink" width="42" height="33" viewBox="0 0 42 33">
	<rect width="1.7499999" height="1.7499999" transform="matrix(1 0 0 1 13.3 11.2)" fill="rgb(66, 40, 27)"/>
	<rect width="1.7499999" height="1.7499999" transform="matrix(1 0 0 1 16.8 14.7)" fill="rgb(66, 40, 27)"/>
	<rect width="1.7499999" height="1.7499999" transform="matrix(1 0 0 1 16.8 16.45)" fill="rgb(66, 40, 27)"/>
	<rect width="3.4999998" height="1.7499999" transform="matrix(1 0 0 1 18.55 16.45)" fill="rgb(181, 184, 180)"/>
	<rect width="1.7499999" height="1.7499999" transform="matrix(1 0 0 1 23.8 14.7)" fill="rgb(66, 40, 27)"/>
	<rect width="1.7499999" height="1.7499999" transform="matrix(1 0 0 1 23.8 18.2)" fill="rgb(64, 64, 64)"/>
	<rect width="1.7499999" height="1.7499999" transform="matrix(1 0 0 1 25.55 18.2)" fill="rgb(66, 40, 27)"/>
	<rect width="1.7499999" height="3.4999998" transform="matrix(1 0 0 1 27.3 19.95)" fill="rgb(66, 40, 27)"/>
	<rect width="1.7499999" height="3.4999998" transform="matrix(1 0 0 1 13.3 19.95)" fill="rgb(66, 40, 27)"/>
	<rect width="1.7499999" height="1.7499999" transform="matrix(1 0 0 1 23.8 16.45)" fill="rgb(66, 40, 27)"/>
	<rect width="1.7499999" height="1.7499999" transform="matrix(1 0 0 1 22.05 14.7)" fill="rgb(92, 94, 92)"/>
	<rect width="1.7499999" height="1.7499999" transform="matrix(1 0 0 1 22.05 18.2)" fill="rgb(181, 184, 180)"/>
	<rect width="1.7499999" height="1.7499999" transform="matrix(1 0 0 1 22.05 16.45)" fill="rgb(64, 64, 64)"/>
	<rect width="1.7499999" height="1.7499999" transform="matrix(1 0 0 1 20.3 14.7)" fill="rgb(181, 184, 180)"/>
	<rect width="1.7499999" height="1.7499999" transform="matrix(1 0 0 1 20.3 18.2)" fill="rgb(64, 64, 64)"/>
	<rect width="3.4999998" height="1.7499999" transform="matrix(1 0 0 1 16.8 18.2)" fill="rgb(66, 40, 27)"/>
	<rect width="3.4999998" height="1.7499999" transform="matrix(1 0 0 1 15.05 21.7)" fill="rgb(88, 89, 88)"/>
	<rect width="8.7500019" height="1.7499999" transform="matrix(1 0 0 1 18.55 21.7)" fill="rgb(142, 142, 142)"/>
	<rect width="12.250006" height="1.7499999" transform="matrix(1 0 0 1 15.05 19.95)" fill="rgb(66, 40, 27)"/>
	<rect width="1.7499999" height="1.7499999" transform="matrix(1 0 0 1 18.55 14.7)" fill="rgb(64, 64, 64)"/>
	<rect width="12.250006" height="1.7499999" transform="matrix(1 0 0 1 15.05 12.95)" fill="rgb(66, 40, 27)"/>
	<rect width="1.7499999" height="1.7499999" transform="matrix(1 0 0 1 27.3 11.2)" fill="rgb(66, 40, 27)"/>
	<rect width="3.4999998" height="1.7499999" transform="matrix(1 0 0 1 15.05 11.2)" fill="rgb(89, 91, 89)"/>
	<rect width="8.7500019" height="1.7499999" transform="matrix(1 0 0 1 18.55 11.2)" fill="rgb(140, 139, 140)"/>
	<rect width="38.500011" height="1.7499999" transform="matrix(1 0 0 1 1.75 0)" fill="rgb(66, 40, 27)"/>
	<rect width="38.500011" height="1.7499999" transform="matrix(1 0 0 1 1.75 9.45)" fill="rgb(66, 40, 27)"/>
	<rect width="34.300014" height="2.1000009" transform="matrix(1 0 0 1 3.85 1.75)" fill="rgb(255, 185, 81)"/>
	<rect width="38.500011" height="2.1000009" transform="matrix(1 0 0 1 1.75 7.34999)" fill="rgb(187, 91, 37)"/>
	<rect width="34.300014" height="3.4999998" transform="matrix(1 0 0 1 3.85 3.85)" fill="rgb(244, 146, 57)"/>
	<rect width="2.1000009" height="2.1000009" transform="matrix(1 0 0 1 1.75 1.75)" fill="rgb(247, 154, 64)"/>
	<rect width="2.1000009" height="2.1000009" transform="matrix(1 0 0 1 38.15 1.75)" fill="rgb(247, 154, 64)"/>
	<rect width="2.1000009" height="3.4999998" transform="matrix(1 0 0 1 1.75 3.85)" fill="rgb(217, 117, 47)"/>
	<rect width="2.1000009" height="3.4999998" transform="matrix(1 0 0 1 38.15 3.85)" fill="rgb(217, 117, 47)"/>
	<rect width="1.7499999" height="7.6999993" transform="matrix(1 0 0 1 0 1.75)" fill="rgb(66, 40, 27)"/>
	<rect width="1.7499999" height="7.6999993" transform="matrix(1 0 0 1 40.25 1.75)" fill="rgb(66, 40, 27)"/>
	<rect width="38.500011" height="1.7499999" transform="matrix(1 0 0 1 1.75 23.45)" fill="rgb(66, 40, 27)"/>
	<rect width="38.500011" height="1.7499999" transform="matrix(1 0 0 1 1.75 30.8)" fill="rgb(66, 40, 27)"/>
	<rect width="34.300014" height="2.1000009" transform="matrix(1 0 0 1 3.85 25.2)" fill="rgb(255, 185, 81)"/>
	<rect width="38.500011" height="1.7499999" transform="matrix(1 0 0 1 1.75 27.3)" fill="rgb(244, 146, 57)"/>
	<rect width="38.500011" height="1.7499999" transform="matrix(1 0 0 1 1.75 29.05)" fill="rgb(187, 91, 37)"/>
	<rect width="2.1000009" height="2.1000009" transform="matrix(1 0 0 1 1.75 25.2)" fill="rgb(247, 154, 64)"/>
	<rect width="2.1000009" height="2.1000009" transform="matrix(1 0 0 1 38.15 25.2)" fill="rgb(247, 154, 64)"/>
	<rect width="1.7499999" height="5.6000023" transform="matrix(1 0 0 1 0 25.2)" fill="rgb(66, 40, 27)"/>
	<rect width="1.7499999" height="5.6000023" transform="matrix(1 0 0 1 40.25 25.2)" fill="rgb(66, 40, 27)"/>
</svg>
