<?xml version="1.0" encoding="utf-8" ?>
<svg xmlns="http://www.w3.org/2000/svg" xmlns:xlink="http://www.w3.org/1999/xlink" width="206" height="70" viewBox="0 0 206 70">
	<rect width="182" height="46" transform="matrix(1 0 0 1 12 12)" fill="rgb(101, 180, 183)"/>
	<rect width="12" height="12" transform="matrix(1 0 0 1 182 12)" fill="rgb(26, 23, 53)"/>
	<rect width="12" height="12" transform="matrix(1 0 0 1 182 46)" fill="rgb(26, 23, 53)"/>
	<rect width="12" height="12" transform="matrix(1 0 0 1 12 12)" fill="rgb(26, 23, 53)"/>
	<rect width="12" height="12" transform="matrix(1 0 0 1 12 46)" fill="rgb(26, 23, 53)"/>
	<rect width="12" height="22" transform="matrix(1 0 0 1 194 24)" fill="rgb(26, 23, 53)"/>
	<rect width="12" height="22" transform="matrix(1 0 0 1 0 24)" fill="rgb(26, 23, 53)"/>
	<rect width="10" height="158" transform="matrix(0 1 -1 0 182 2)" fill="rgb(26, 23, 53)"/>
	<rect width="10" height="158" transform="matrix(0 1 -1 0 182 58)" fill="rgb(26, 23, 53)"/>
	<path d="M0 0L5 0L5 3L10 3L10 6L15 6L15 9L18 9L18 13L15 13L15 16L10 16L10 19L5 19L5 22L0 22L0 0Z" fill-rule="evenodd" transform="matrix(1 0 0 1 164 27)" fill="rgb(26, 23, 53)"/>
	<path d="M23 5L23 0L0 0L0 5L8.47266 5L8.47266 29L14.5253 29L14.5253 5L23 5Z" fill-rule="evenodd" transform="matrix(1 0 0 1 55.002 23)" fill="rgb(26, 23, 53)"/>
	<path d="M23 5L23 0L0 0L0 5L8.47266 5L8.47266 29L14.5253 29L14.5253 5L23 5Z" fill-rule="evenodd" transform="matrix(1 0 0 1 133.002 23)" fill="rgb(26, 23, 53)"/>
	<path d="M0 0L18.1562 0L18.1562 4L6.05264 4L6.05264 13L18.1562 13L18.1562 4L22.9984 4L22.9984 13L18.998 13L18.998 17L22.9984 17L22.9984 29L18.1562 29L18.1562 18L6.05264 18L6.05264 29L0 29L0 0Z" fill-rule="evenodd" transform="matrix(1 0 0 1 107.002 23)" fill="rgb(26, 23, 53)"/>
	<path d="M15.3327 0L7.66602 0L7.66602 3L2.55469 3L2.55469 7L0 7L0 29L6.38889 29L6.38889 19L16.6094 19L16.6094 29L22.9983 29L22.9983 7L20.4436 7L20.4436 3L15.3327 3L15.3327 0ZM16.6094 7L6.38889 7L6.38889 15L16.6094 15L16.6094 7Z" fill-rule="evenodd" transform="matrix(1 0 0 1 81.002 23)" fill="rgb(26, 23, 53)"/>
	<path d="M6.38867 6L16.6131 6L16.6131 9L23.002 9L23.002 6L20.4453 6L20.4453 2L15.3359 2L15.3359 0L7.66927 0L7.66927 2L2.55642 2L2.55642 6L-0.000216961 6L-0.000216961 12L3.00195 12L3.00195 16L16.6131 16L16.6131 23L6.38867 23L6.38867 18L-0.000216961 18L-0.000216961 23L2.55642 23L2.55642 27L7.66927 27L7.66927 29L15.3359 29L15.3359 27L20.4453 27L20.4453 23L23.002 23L23.002 15L20.002 15L20.002 12L6.38867 12L6.38867 6Z" fill-rule="evenodd" transform="matrix(1 0 0 1 29 23)" fill="rgb(26, 23, 53)"/>
	<path d="M0 0L5 0L5 3L10 3L10 6L15 6L15 9L18 9L18 13L15 13L15 16L10 16L10 19L5 19L5 22L0 22L0 0Z" fill-rule="evenodd" transform="matrix(1 0 0 1 166 24)" fill="rgb(255, 240, 123)"/>
	<path d="M23 5L23 0L0 0L0 5L8.47266 5L8.47266 29L14.5253 29L14.5253 5L23 5Z" fill-rule="evenodd" transform="matrix(1 0 0 1 57.002 20)" fill="rgb(255, 240, 123)"/>
	<path d="M23 5L23 0L0 0L0 5L8.47266 5L8.47266 29L14.5253 29L14.5253 5L23 5Z" fill-rule="evenodd" transform="matrix(1 0 0 1 135.002 20)" fill="rgb(255, 240, 123)"/>
	<path d="M0 0L18.1562 0L18.1562 4L6.05264 4L6.05264 13L18.1562 13L18.1562 4L22.9984 4L22.9984 13L18.998 13L18.998 17L22.9984 17L22.9984 29L18.1562 29L18.1562 18L6.05264 18L6.05264 29L0 29L0 0Z" fill-rule="evenodd" transform="matrix(1 0 0 1 109.002 20)" fill="rgb(255, 240, 123)"/>
	<path d="M15.3327 0L7.66602 0L7.66602 3L2.55469 3L2.55469 7L0 7L0 29L6.38889 29L6.38889 19L16.6094 19L16.6094 29L22.9983 29L22.9983 7L20.4436 7L20.4436 3L15.3327 3L15.3327 0ZM16.6094 7L6.38889 7L6.38889 15L16.6094 15L16.6094 7Z" fill-rule="evenodd" transform="matrix(1 0 0 1 83.002 20)" fill="rgb(255, 240, 123)"/>
	<path d="M6.38867 6L16.6131 6L16.6131 9L23.002 9L23.002 6L20.4453 6L20.4453 2L15.3359 2L15.3359 0L7.66927 0L7.66927 2L2.55642 2L2.55642 6L-0.000216961 6L-0.000216961 12L3.00195 12L3.00195 16L16.6131 16L16.6131 23L6.38867 23L6.38867 18L-0.000216961 18L-0.000216961 23L2.55642 23L2.55642 27L7.66927 27L7.66927 29L15.3359 29L15.3359 27L20.4453 27L20.4453 23L23.002 23L23.002 15L20.002 15L20.002 12L6.38867 12L6.38867 6Z" fill-rule="evenodd" transform="matrix(1 0 0 1 31 20)" fill="rgb(255, 240, 123)"/>
</svg>
