<?xml version="1.0" encoding="utf-8" ?>
<svg xmlns="http://www.w3.org/2000/svg" xmlns:xlink="http://www.w3.org/1999/xlink" width="22" height="22" viewBox="0 0 22 22">
	<path d="M6.45333 0L1.46667 0L1.46667 1.4865L0 1.4865L0 8.91901L1.46667 8.91901L1.46667 11.5947L2.93333 11.5947L2.93333 13.0812L4.4 13.0812L4.4 14.5677L5.86667 14.5677L5.86667 16.0542L7.33333 16.0542L7.33333 17.5407L8.8 17.5407L8.8 19.0272L10.2667 19.0272L10.2667 17.5407L11.7333 17.5407L11.7333 16.0542L13.2 16.0542L13.2 14.5677L14.6667 14.5677L14.6667 13.0812L16.1333 13.0812L16.1333 11.5947L17.6 11.5947L17.6 8.91901L19.0667 8.91901L19.0667 1.4865L17.6 1.4865L17.6 0L12.6133 0L12.6133 1.4865L10.56 1.4865L10.56 2.973L8.50667 2.973L8.50667 1.4865L6.45333 1.4865L6.45333 0Z" fill-rule="nonzero" transform="matrix(1 0 0 1 1.46804 1.48633)" fill="rgb(225, 55, 50)"/>
	<rect width="4.9866672" height="1.4865016" transform="matrix(1 0 0 1 2.9341 0)" fill="rgb(214, 214, 214)"/>
	<rect width="4.9866672" height="1.4865016" transform="matrix(1 0 0 1 14.0802 0)" fill="rgb(214, 214, 214)"/>
	<rect width="1.4666667" height="1.4865016" transform="matrix(1 0 0 1 1.46804 1.48633)" fill="rgb(214, 214, 214)"/>
	<rect width="2.0533335" height="1.4865016" transform="matrix(1 0 0 1 12.0257 1.48633)" fill="rgb(214, 214, 214)"/>
	<rect width="1.4666667" height="2.6757028" transform="matrix(1 0 0 1 1.46804 10.4058)" fill="rgb(214, 214, 214)"/>
	<rect width="1.4666667" height="2.6757028" transform="matrix(1 0 0 1 19.0667 10.4058)" fill="rgb(214, 214, 214)"/>
	<rect width="1.4666667" height="1.4865016" transform="matrix(1 0 0 -1 2.9341 14.5679)" fill="rgb(214, 214, 214)"/>
	<rect width="1.4666667" height="1.4865016" transform="matrix(1 0 0 -1 2.9341 5.64844)" fill="rgb(214, 214, 214)"/>
	<rect width="1.4666667" height="1.4865016" transform="matrix(1 0 0 -1 4.40017 4.16211)" fill="rgb(214, 214, 214)"/>
	<rect width="1.4666667" height="1.4865016" transform="matrix(1 0 0 -1 17.6007 14.5679)" fill="rgb(214, 214, 214)"/>
	<rect width="1.4666667" height="1.4865016" transform="matrix(1 0 0 -1 16.1326 16.0542)" fill="rgb(214, 214, 214)"/>
	<rect width="1.4666667" height="1.4865016" transform="matrix(1 0 0 -1 14.6666 17.5405)" fill="rgb(214, 214, 214)"/>
	<rect width="1.4666667" height="1.4865016" transform="matrix(1 0 0 -1 13.2005 19.0273)" fill="rgb(214, 214, 214)"/>
	<rect width="1.4666667" height="1.4865016" transform="matrix(1 0 0 -1 11.7344 20.5137)" fill="rgb(214, 214, 214)"/>
	<rect width="1.4666667" height="1.4865016" transform="matrix(1 0 0 -1 4.40017 16.0542)" fill="rgb(214, 214, 214)"/>
	<rect width="1.4666667" height="1.4865016" transform="matrix(1 0 0 -1 5.86624 17.5405)" fill="rgb(214, 214, 214)"/>
	<rect width="1.4666667" height="1.4865016" transform="matrix(1 0 0 -1 7.33427 19.0273)" fill="rgb(214, 214, 214)"/>
	<rect width="1.4666667" height="1.4865016" transform="matrix(1 0 0 -1 8.80034 20.5137)" fill="rgb(214, 214, 214)"/>
	<rect width="1.4666667" height="1.4865016" transform="matrix(1 0 0 -1 10.2664 22)" fill="rgb(214, 214, 214)"/>
	<rect width="1.4666667" height="7.432508" transform="matrix(1 0 0 -1 0 10.4058)" fill="rgb(214, 214, 214)"/>
	<rect width="1.4666667" height="7.432508" transform="matrix(1 0 0 -1 20.5328 10.4058)" fill="rgb(214, 214, 214)"/>
	<rect width="2.0533335" height="1.4865016" transform="matrix(1 0 0 1 7.9207 1.48633)" fill="rgb(214, 214, 214)"/>
	<rect width="1.4666667" height="1.4865016" transform="matrix(1 0 0 1 19.0667 1.48633)" fill="rgb(214, 214, 214)"/>
	<rect width="2.0533335" height="1.4865016" transform="matrix(1 0 0 1 9.9732 2.97314)" fill="rgb(214, 214, 214)"/>
	<rect width="1.4666667" height="1.4865016" transform="matrix(1 0 0 -1 4.40214 14.5674)" fill="rgb(176, 30, 36)"/>
	<rect width="1.4666667" height="1.4865016" transform="matrix(1 0 0 -1 2.9341 13.0811)" fill="rgb(176, 30, 36)"/>
	<rect width="1.4666667" height="1.4865016" transform="matrix(1 0 0 -1 5.86821 16.0542)" fill="rgb(176, 30, 36)"/>
	<rect width="1.4666667" height="1.4865016" transform="matrix(1 0 0 -1 7.33427 17.5405)" fill="rgb(176, 30, 36)"/>
	<rect width="2.9333334" height="1.4865016" transform="matrix(1 0 0 -1 11.7344 17.5405)" fill="rgb(176, 30, 36)"/>
	<rect width="2.9333334" height="1.4865016" transform="matrix(1 0 0 -1 13.2005 16.0542)" fill="rgb(176, 30, 36)"/>
	<rect width="2.9333334" height="1.4865016" transform="matrix(1 0 0 -1 14.6685 14.5674)" fill="rgb(176, 30, 36)"/>
	<rect width="2.9333334" height="1.4865016" transform="matrix(1 0 0 -1 16.1346 13.0811)" fill="rgb(176, 30, 36)"/>
	<rect width="1.4666667" height="1.4865016" transform="matrix(1 0 0 -1 17.6007 11.8921)" fill="rgb(176, 30, 36)"/>
	<rect width="1.4666667" height="1.4865016" transform="matrix(1 0 0 -1 19.0668 10.4053)" fill="rgb(176, 30, 36)"/>
	<rect width="4.4000001" height="1.4865016" transform="matrix(1 0 0 -1 8.80034 19.0269)" fill="rgb(176, 30, 36)"/>
	<rect width="1.4666667" height="1.4865016" transform="matrix(1 0 0 -1 10.2684 20.5137)" fill="rgb(176, 30, 36)"/>
</svg>
