<?xml version="1.0" encoding="utf-8" ?>
<svg xmlns="http://www.w3.org/2000/svg" xmlns:xlink="http://www.w3.org/1999/xlink" width="42" height="28" viewBox="0 0 42 28">
	<rect width="1.7499999" height="1.7499999" transform="matrix(1 0 0 1 13.3 11.2)" fill="rgb(66, 40, 27)"/>
	<rect width="1.7499999" height="3.4999998" transform="matrix(1 0 0 1 27.3 14.7)" fill="rgb(66, 40, 27)"/>
	<rect width="1.7499999" height="3.4999998" transform="matrix(1 0 0 1 13.3 14.7)" fill="rgb(66, 40, 27)"/>
	<rect width="3.4999998" height="1.7499999" transform="matrix(1 0 0 1 15.05 16.45)" fill="rgb(88, 89, 88)"/>
	<rect width="8.750001" height="1.7499999" transform="matrix(1 0 0 1 18.55 16.45)" fill="rgb(142, 142, 142)"/>
	<rect width="12.250006" height="1.7499999" transform="matrix(1 0 0 1 15.05 14.7)" fill="rgb(66, 40, 27)"/>
	<rect width="12.250006" height="1.7499999" transform="matrix(1 0 0 1 15.05 12.95)" fill="rgb(66, 40, 27)"/>
	<rect width="1.7499999" height="1.7499999" transform="matrix(1 0 0 1 27.3 11.2)" fill="rgb(66, 40, 27)"/>
	<rect width="3.4999998" height="1.7499999" transform="matrix(1 0 0 1 15.05 11.2)" fill="rgb(89, 91, 89)"/>
	<rect width="8.750001" height="1.7499999" transform="matrix(1 0 0 1 18.55 11.2)" fill="rgb(140, 139, 140)"/>
	<rect width="38.500011" height="1.7499999" transform="matrix(1 0 0 1 1.75 0)" fill="rgb(66, 40, 27)"/>
	<rect width="38.500011" height="1.7499999" transform="matrix(1 0 0 1 1.75 9.45)" fill="rgb(66, 40, 27)"/>
	<rect width="34.300011" height="2.1000004" transform="matrix(1 0 0 1 3.85 1.75)" fill="rgb(255, 185, 81)"/>
	<rect width="38.500011" height="2.1000004" transform="matrix(1 0 0 1 1.75 7.34999)" fill="rgb(187, 91, 37)"/>
	<rect width="34.300011" height="3.4999998" transform="matrix(1 0 0 1 3.85 3.85)" fill="rgb(244, 146, 57)"/>
	<rect width="2.1000004" height="2.1000004" transform="matrix(1 0 0 1 1.75 1.75)" fill="rgb(247, 154, 64)"/>
	<rect width="2.1000004" height="2.1000004" transform="matrix(1 0 0 1 38.15 1.75)" fill="rgb(247, 154, 64)"/>
	<rect width="2.1000004" height="3.4999998" transform="matrix(1 0 0 1 1.75 3.85)" fill="rgb(217, 117, 47)"/>
	<rect width="2.1000004" height="3.4999998" transform="matrix(1 0 0 1 38.15 3.85)" fill="rgb(217, 117, 47)"/>
	<rect width="1.7499999" height="7.6999974" transform="matrix(1 0 0 1 0 1.75)" fill="rgb(66, 40, 27)"/>
	<rect width="1.7499999" height="7.6999974" transform="matrix(1 0 0 1 40.25 1.75)" fill="rgb(66, 40, 27)"/>
	<rect width="38.500011" height="1.7499999" transform="matrix(1 0 0 1 1.75 18.2)" fill="rgb(66, 40, 27)"/>
	<rect width="38.500011" height="1.7499999" transform="matrix(1 0 0 1 1.75 25.55)" fill="rgb(66, 40, 27)"/>
	<rect width="34.300011" height="2.1000004" transform="matrix(1 0 0 1 3.85 19.95)" fill="rgb(255, 185, 81)"/>
	<rect width="38.500011" height="1.7499999" transform="matrix(1 0 0 1 1.75 22.05)" fill="rgb(244, 146, 57)"/>
	<rect width="38.500011" height="1.7499999" transform="matrix(1 0 0 1 1.75 23.8)" fill="rgb(187, 91, 37)"/>
	<rect width="2.1000004" height="2.1000004" transform="matrix(1 0 0 1 1.75 19.95)" fill="rgb(247, 154, 64)"/>
	<rect width="2.1000004" height="2.1000004" transform="matrix(1 0 0 1 38.15 19.95)" fill="rgb(247, 154, 64)"/>
	<rect width="1.7499999" height="5.6000013" transform="matrix(1 0 0 1 0 19.95)" fill="rgb(66, 40, 27)"/>
	<rect width="1.7499999" height="5.6000013" transform="matrix(1 0 0 1 40.25 19.95)" fill="rgb(66, 40, 27)"/>
</svg>
