<?xml version="1.0" encoding="utf-8" ?>
<svg xmlns="http://www.w3.org/2000/svg" xmlns:xlink="http://www.w3.org/1999/xlink" width="42" height="38" viewBox="0 0 42 38">
	<rect width="1.75" height="1.75" transform="matrix(1 0 0 1 13.3 11.2)" fill="rgb(66, 40, 27)"/>
	<rect width="1.75" height="3.5" transform="matrix(1 0 0 1 15.05 16.45)" fill="rgb(66, 40, 27)"/>
	<rect width="1.75" height="1.75" transform="matrix(1 0 0 1 16.8 14.7)" fill="rgb(66, 40, 27)"/>
	<rect width="1.75" height="1.75" transform="matrix(1 0 0 1 16.8 18.2)" fill="rgb(142, 142, 142)"/>
	<rect width="1.75" height="1.75" transform="matrix(1 0 0 1 16.8 19.95)" fill="rgb(88, 89, 88)"/>
	<rect width="1.75" height="1.75" transform="matrix(1 0 0 1 15.05 21.7)" fill="rgb(66, 40, 27)"/>
	<rect width="1.75" height="1.75" transform="matrix(1 0 0 1 16.8 21.7)" fill="rgb(142, 142, 142)"/>
	<rect width="3.5" height="1.75" transform="matrix(1 0 0 1 18.55 21.7)" fill="rgb(181, 184, 180)"/>
	<rect width="1.75" height="1.75" transform="matrix(1 0 0 1 16.8 16.45)" fill="rgb(88, 89, 88)"/>
	<rect width="1.75" height="1.75" transform="matrix(1 0 0 1 23.8 14.7)" fill="rgb(66, 40, 27)"/>
	<rect width="1.75" height="1.75" transform="matrix(1 0 0 1 23.8 18.2)" fill="rgb(66, 40, 27)"/>
	<rect width="1.75" height="1.75" transform="matrix(1 0 0 1 23.8 23.45)" fill="rgb(64, 64, 64)"/>
	<rect width="1.75" height="1.75" transform="matrix(1 0 0 1 25.55 23.45)" fill="rgb(66, 40, 27)"/>
	<rect width="1.75" height="3.5" transform="matrix(1 0 0 1 27.3 25.2)" fill="rgb(66, 40, 27)"/>
	<rect width="1.75" height="3.5" transform="matrix(1 0 0 1 13.3 25.2)" fill="rgb(66, 40, 27)"/>
	<rect width="1.75" height="1.75" transform="matrix(1 0 0 1 23.8 21.7)" fill="rgb(66, 40, 27)"/>
	<rect width="1.75" height="1.75" transform="matrix(1 0 0 1 22.05 14.7)" fill="rgb(92, 94, 92)"/>
	<rect width="1.75" height="1.75" transform="matrix(1 0 0 1 22.05 18.2)" fill="rgb(92, 94, 92)"/>
	<rect width="1.75" height="1.75" transform="matrix(1 0 0 1 22.05 23.45)" fill="rgb(181, 184, 180)"/>
	<rect width="1.75" height="1.75" transform="matrix(1 0 0 1 22.05 21.7)" fill="rgb(64, 64, 64)"/>
	<rect width="1.75" height="1.75" transform="matrix(1 0 0 1 20.3 14.7)" fill="rgb(181, 184, 180)"/>
	<rect width="1.75" height="1.75" transform="matrix(1 0 0 1 20.3 18.2)" fill="rgb(142, 142, 142)"/>
	<rect width="1.75" height="1.75" transform="matrix(1 0 0 1 20.3 23.45)" fill="rgb(64, 64, 64)"/>
	<rect width="3.5" height="1.75" transform="matrix(1 0 0 1 16.8 23.45)" fill="rgb(66, 40, 27)"/>
	<rect width="3.5" height="1.75" transform="matrix(1 0 0 1 15.05 26.95)" fill="rgb(88, 89, 88)"/>
	<rect width="8.75" height="1.75" transform="matrix(1 0 0 1 18.55 26.95)" fill="rgb(142, 142, 142)"/>
	<rect width="12.250005" height="1.75" transform="matrix(1 0 0 1 15.05 25.2)" fill="rgb(66, 40, 27)"/>
	<rect width="3.5" height="1.75" transform="matrix(1 0 0 1 20.3 19.95)" fill="rgb(66, 40, 27)"/>
	<rect width="1.75" height="1.75" transform="matrix(1 0 0 1 18.55 19.95)" fill="rgb(88, 89, 88)"/>
	<rect width="1.75" height="1.75" transform="matrix(1 0 0 1 18.55 14.7)" fill="rgb(64, 64, 64)"/>
	<rect width="1.75" height="1.75" transform="matrix(1 0 0 1 18.55 18.2)" fill="rgb(181, 184, 180)"/>
	<rect width="1.75" height="1.75" transform="matrix(1 0 0 1 18.55 16.45)" fill="rgb(76, 77, 76)"/>
	<rect width="3.5" height="1.75" transform="matrix(1 0 0 1 20.3 16.45)" fill="rgb(66, 40, 27)"/>
	<rect width="12.250005" height="1.75" transform="matrix(1 0 0 1 15.05 12.95)" fill="rgb(66, 40, 27)"/>
	<rect width="1.75" height="1.75" transform="matrix(1 0 0 1 27.3 11.2)" fill="rgb(66, 40, 27)"/>
	<rect width="3.5" height="1.75" transform="matrix(1 0 0 1 15.05 11.2)" fill="rgb(89, 91, 89)"/>
	<rect width="8.75" height="1.75" transform="matrix(1 0 0 1 18.55 11.2)" fill="rgb(140, 139, 140)"/>
	<rect width="38.500004" height="1.75" transform="matrix(1 0 0 1 1.75 0)" fill="rgb(66, 40, 27)"/>
	<rect width="38.500004" height="1.75" transform="matrix(1 0 0 1 1.75 9.45)" fill="rgb(66, 40, 27)"/>
	<rect width="34.300011" height="2.1000001" transform="matrix(1 0 0 1 3.85 1.75)" fill="rgb(255, 185, 81)"/>
	<rect width="38.500004" height="2.1000001" transform="matrix(1 0 0 1 1.75 7.34999)" fill="rgb(187, 91, 37)"/>
	<rect width="34.300011" height="3.5" transform="matrix(1 0 0 1 3.85 3.85)" fill="rgb(244, 146, 57)"/>
	<rect width="2.1000001" height="2.1000001" transform="matrix(1 0 0 1 1.75 1.75)" fill="rgb(247, 154, 64)"/>
	<rect width="2.1000001" height="2.1000001" transform="matrix(1 0 0 1 38.15 1.75)" fill="rgb(247, 154, 64)"/>
	<rect width="2.1000001" height="3.5" transform="matrix(1 0 0 1 1.75 3.85)" fill="rgb(217, 117, 47)"/>
	<rect width="2.1000001" height="3.5" transform="matrix(1 0 0 1 38.15 3.85)" fill="rgb(217, 117, 47)"/>
	<rect width="1.75" height="7.6999965" transform="matrix(1 0 0 1 0 1.75)" fill="rgb(66, 40, 27)"/>
	<rect width="1.75" height="7.6999965" transform="matrix(1 0 0 1 40.25 1.75)" fill="rgb(66, 40, 27)"/>
	<rect width="38.500004" height="1.75" transform="matrix(1 0 0 1 1.75 28.7)" fill="rgb(66, 40, 27)"/>
	<rect width="38.500004" height="1.75" transform="matrix(1 0 0 1 1.75 36.05)" fill="rgb(66, 40, 27)"/>
	<rect width="34.300011" height="2.1000001" transform="matrix(1 0 0 1 3.85 30.45)" fill="rgb(255, 185, 81)"/>
	<rect width="38.500004" height="1.75" transform="matrix(1 0 0 1 1.75 32.55)" fill="rgb(244, 146, 57)"/>
	<rect width="38.500004" height="1.75" transform="matrix(1 0 0 1 1.75 34.3)" fill="rgb(187, 91, 37)"/>
	<rect width="2.1000001" height="2.1000001" transform="matrix(1 0 0 1 1.75 30.45)" fill="rgb(247, 154, 64)"/>
	<rect width="2.1000001" height="2.1000001" transform="matrix(1 0 0 1 38.15 30.45)" fill="rgb(247, 154, 64)"/>
	<rect width="1.75" height="5.6000013" transform="matrix(1 0 0 1 0 30.45)" fill="rgb(66, 40, 27)"/>
	<rect width="1.75" height="5.6000013" transform="matrix(1 0 0 1 40.25 30.45)" fill="rgb(66, 40, 27)"/>
</svg>
