<?xml version="1.0" encoding="utf-8" ?>
<svg xmlns="http://www.w3.org/2000/svg" xmlns:xlink="http://www.w3.org/1999/xlink" width="171" height="58" viewBox="0 0 171 58">
	<rect width="9" height="18" transform="matrix(1 0 0 1 0 20)" fill="rgb(107, 214, 132)"/>
	<rect width="9" height="12" transform="matrix(1 0 0 1 9 8)" fill="rgb(107, 214, 132)"/>
	<rect width="9" height="12" transform="matrix(1 0 0 1 153 8)" fill="rgb(107, 214, 132)"/>
	<rect width="9" height="12" transform="matrix(1 0 0 1 9 38)" fill="rgb(107, 214, 132)"/>
	<rect width="9" height="12" transform="matrix(1 0 0 1 153 38)" fill="rgb(107, 214, 132)"/>
	<rect width="9" height="18" transform="matrix(1 0 0 1 162 20)" fill="rgb(107, 214, 132)"/>
	<rect width="8" height="135" transform="matrix(0 1 -1 0 153 0)" fill="rgb(107, 214, 132)"/>
	<rect width="8" height="135" transform="matrix(0 1 -1 0 153 50)" fill="rgb(107, 214, 132)"/>
	<rect width="5" height="29" transform="matrix(1 0 0 1 62 15)" fill="rgb(107, 214, 132)"/>
	<rect width="5" height="19" transform="matrix(0 1 -1 0 74 15)" fill="rgb(107, 214, 132)"/>
	<rect width="5" height="29" transform="matrix(1 0 0 1 127 15)" fill="rgb(107, 214, 132)"/>
	<rect width="5" height="19" transform="matrix(0 1 -1 0 139 15)" fill="rgb(107, 214, 132)"/>
	<rect width="5" height="29" transform="matrix(1 0 0 1 98 15)" fill="rgb(107, 214, 132)"/>
	<rect width="4" height="9" transform="matrix(1 0 0 1 113 19)" fill="rgb(107, 214, 132)"/>
	<rect width="4" height="12" transform="matrix(1 0 0 1 113 32)" fill="rgb(107, 214, 132)"/>
	<rect width="4" height="10" transform="matrix(0 1 -1 0 113 15)" fill="rgb(107, 214, 132)"/>
	<rect width="4" height="10" transform="matrix(0 1 -1 0 113 28)" fill="rgb(107, 214, 132)"/>
	<rect width="4" height="12" transform="matrix(0 1 -1 0 92 30)" fill="rgb(107, 214, 132)"/>
	<rect width="6" height="7" transform="matrix(1 0 0 1 83 15)" fill="rgb(107, 214, 132)"/>
	<rect width="5" height="4" transform="matrix(1 0 0 1 88 18)" fill="rgb(107, 214, 132)"/>
	<rect width="5" height="4" transform="matrix(1 0 0 1 79 18)" fill="rgb(107, 214, 132)"/>
	<rect width="5" height="22" transform="matrix(1 0 0 1 90 22)" fill="rgb(107, 214, 132)"/>
	<rect width="5" height="22" transform="matrix(1 0 0 1 77 22)" fill="rgb(107, 214, 132)"/>
	<rect width="6.666667" height="6" transform="matrix(1 0 0 1 38.6667 15)" fill="rgb(107, 214, 132)"/>
	<rect width="6.666667" height="6" transform="matrix(1 0 0 1 38.6667 38)" fill="rgb(107, 214, 132)"/>
	<rect width="5.5555558" height="4" transform="matrix(1 0 0 1 44.2222 17)" fill="rgb(107, 214, 132)"/>
	<rect width="5.5555558" height="4" transform="matrix(1 0 0 1 44.2222 38)" fill="rgb(107, 214, 132)"/>
	<rect width="5.5555558" height="4" transform="matrix(1 0 0 1 34.2222 17)" fill="rgb(107, 214, 132)"/>
	<rect width="5.5555558" height="4" transform="matrix(1 0 0 1 34.2222 38)" fill="rgb(107, 214, 132)"/>
	<rect width="5.5555558" height="3" transform="matrix(1 0 0 1 32 35)" fill="rgb(107, 214, 132)"/>
	<rect width="12.222223" height="4" transform="matrix(1 0 0 1 34.2222 28)" fill="rgb(107, 214, 132)"/>
	<rect width="5.5555558" height="5" transform="matrix(1 0 0 1 46.4444 21)" fill="rgb(107, 214, 132)"/>
	<rect width="5.5555558" height="6" transform="matrix(1 0 0 1 46.4444 32)" fill="rgb(107, 214, 132)"/>
	<rect width="5.5555558" height="8" transform="matrix(1 0 0 1 32 21)" fill="rgb(107, 214, 132)"/>
</svg>
