<?xml version="1.0" encoding="utf-8" ?>
<svg xmlns="http://www.w3.org/2000/svg" xmlns:xlink="http://www.w3.org/1999/xlink" width="84" height="53" viewBox="0 0 84 53">
	<rect width="7" height="2" transform="matrix(1 0 0 1 8 0)" fill="rgb(174, 206, 235)"/>
	<rect width="7" height="2" transform="matrix(1 0 0 1 34 9)" fill="rgb(174, 206, 235)"/>
	<rect width="5" height="2" transform="matrix(1 0 0 1 27 18)" fill="rgb(174, 206, 235)"/>
	<rect width="20" height="2" transform="matrix(1 0 0 1 32 20)" fill="rgb(174, 206, 235)"/>
	<rect width="16" height="2" transform="matrix(1 0 0 1 57 19)" fill="rgb(174, 206, 235)"/>
	<rect width="8" height="2" transform="matrix(1 0 0 1 45 13)" fill="rgb(174, 206, 235)"/>
	<rect width="4" height="2" transform="matrix(1 0 0 1 15 2)" fill="rgb(174, 206, 235)"/>
	<rect width="2" height="2" transform="matrix(1 0 0 1 6 2)" fill="rgb(174, 206, 235)"/>
	<rect width="2" height="2" transform="matrix(1 0 0 1 4 4)" fill="rgb(174, 206, 235)"/>
	<rect width="2" height="2" transform="matrix(1 0 0 1 2 6)" fill="rgb(174, 206, 235)"/>
	<rect width="2" height="2" transform="matrix(1 0 0 1 2 20)" fill="rgb(174, 206, 235)"/>
	<rect width="2" height="2" transform="matrix(1 0 0 1 15 35)" fill="rgb(174, 206, 235)"/>
	<rect width="2" height="2" transform="matrix(1 0 0 1 13 37)" fill="rgb(174, 206, 235)"/>
	<rect width="2" height="2" transform="matrix(1 0 0 1 13 47)" fill="rgb(174, 206, 235)"/>
	<rect width="2" height="2" transform="matrix(1 0 0 1 15 49)" fill="rgb(174, 206, 235)"/>
	<rect width="2" height="2" transform="matrix(1 0 0 1 26 49)" fill="rgb(174, 206, 235)"/>
	<rect width="2" height="2" transform="matrix(1 0 0 1 26 41)" fill="rgb(174, 206, 235)"/>
	<rect width="7" height="2" transform="matrix(1 0 0 1 40 42)" fill="rgb(174, 206, 235)"/>
	<rect width="6" height="2" transform="matrix(1 0 0 1 34 47)" fill="rgb(174, 206, 235)"/>
	<rect width="26" height="2" transform="matrix(1 0 0 1 44 38)" fill="rgb(174, 206, 235)"/>
	<rect width="2" height="5" transform="matrix(1 0 0 1 17 41)" fill="rgb(174, 206, 235)"/>
	<rect width="7" height="2" transform="matrix(1 0 0 1 19 39)" fill="rgb(174, 206, 235)"/>
	<rect width="4" height="2" transform="matrix(1 0 0 1 19 46)" fill="rgb(174, 206, 235)"/>
	<rect width="2" height="6" transform="matrix(1 0 0 1 28 43)" fill="rgb(174, 206, 235)"/>
	<rect width="9" height="2" transform="matrix(1 0 0 1 17 51)" fill="rgb(174, 206, 235)"/>
	<rect width="2" height="8" transform="matrix(1 0 0 1 11 39)" fill="rgb(174, 206, 235)"/>
	<rect width="18" height="2" transform="matrix(1 0 0 1 8 24)" fill="rgb(174, 206, 235)"/>
	<rect width="64" height="2" transform="matrix(1 0 0 1 15 26)" fill="rgb(174, 206, 235)"/>
	<rect width="67" height="2" transform="matrix(1 0 0 1 17 33)" fill="rgb(174, 206, 235)"/>
	<rect width="4" height="2" transform="matrix(1 0 0 1 4 22)" fill="rgb(174, 206, 235)"/>
	<rect width="2" height="12" transform="matrix(1 0 0 1 0 8)" fill="rgb(174, 206, 235)"/>
	<rect width="2" height="10" transform="matrix(1 0 0 1 21 6)" fill="rgb(174, 206, 235)"/>
	<rect width="2" height="2" transform="matrix(1 0 0 1 19 4)" fill="rgb(174, 206, 235)"/>
	<rect width="2" height="2" transform="matrix(1 0 0 1 19 16)" fill="rgb(174, 206, 235)"/>
	<rect width="2" height="2" transform="matrix(1 0 0 1 6 0)" fill="rgb(151, 181, 211)"/>
	<rect width="2" height="2" transform="matrix(1 0 0 1 4 2)" fill="rgb(151, 181, 211)"/>
	<rect width="2" height="2" transform="matrix(1 0 0 1 2 4)" fill="rgb(151, 181, 211)"/>
	<rect width="2" height="2" transform="matrix(1 0 0 1 2 22)" fill="rgb(151, 181, 211)"/>
	<rect width="2" height="2" transform="matrix(1 0 0 1 6 24)" fill="rgb(151, 181, 211)"/>
	<rect width="2" height="2" transform="matrix(1 0 0 1 15 33)" fill="rgb(151, 181, 211)"/>
	<rect width="2" height="2" transform="matrix(1 0 0 1 13 35)" fill="rgb(151, 181, 211)"/>
	<rect width="2" height="2" transform="matrix(1 0 0 1 24 49)" fill="rgb(151, 181, 211)"/>
	<rect width="2" height="2" transform="matrix(1 0 0 1 26 47)" fill="rgb(151, 181, 211)"/>
	<rect width="2" height="2" transform="matrix(1 0 0 1 11 37)" fill="rgb(151, 181, 211)"/>
	<rect width="2" height="2" transform="matrix(1 0 0 1 0 6)" fill="rgb(151, 181, 211)"/>
	<rect width="2" height="2" transform="matrix(1 0 0 1 0 20)" fill="rgb(151, 181, 211)"/>
	<rect width="2" height="2" transform="matrix(1 0 0 1 19 14)" fill="rgb(151, 181, 211)"/>
	<rect width="2" height="2" transform="matrix(1 0 0 1 17 16)" fill="rgb(151, 181, 211)"/>
	<rect width="2" height="2" transform="matrix(1 0 0 1 8 16)" fill="rgb(174, 206, 235)"/>
	<rect width="2" height="3" transform="matrix(1 0 0 1 14 9)" fill="rgb(174, 206, 235)"/>
	<rect width="3" height="2" transform="matrix(1 0 0 1 11 12)" fill="rgb(174, 206, 235)"/>
	<rect width="6" height="2" transform="matrix(1 0 0 1 8 7)" fill="rgb(174, 206, 235)"/>
	<rect width="2" height="7" transform="matrix(1 0 0 1 6 9)" fill="rgb(174, 206, 235)"/>
	<rect width="9" height="2" transform="matrix(1 0 0 1 10 18)" fill="rgb(174, 206, 235)"/>
</svg>
